<?xml version="1.0" encoding="utf-8"?>
<!-- Generator: Adobe Illustrator 22.0.1, SVG Export Plug-In . SVG Version: 6.00 Build 0)  -->
<svg version="1.1" id="Layer_1" xmlns="http://www.w3.org/2000/svg" xmlns:xlink="http://www.w3.org/1999/xlink" x="0px" y="0px"
	 viewBox="0 0 166.8 128.8" style="enable-background:new 0 0 166.8 128.8;" xml:space="preserve">
<style type="text/css">
	.st0{fill:#58BF00;}
	.st1{fill:#4C9B00;}
	.st2{fill:#9FE800;}
</style>
<g>
	<path class="st0" d="M129.7,57.9l32.8-32.8c5.8-5.8,5.8-15.1,0-20.9c-5-5-12.7-5.7-18.4-2L60.9,85.6c-1.7,1.7-3.1,3.1-4.4,4
		c1.4,0.6,3,1.1,4.6,1.4c13.1,2.5,29.4-5.9,41.5-12.8C112.7,72.4,121.5,66.2,129.7,57.9L129.7,57.9z"/>
	<path class="st1" d="M60.9,85.6c-1.7,1.7-3.1,3.1-4.4,4c1.4,0.6,3,1.1,4.6,1.4c13.1,2.5,29.4-5.9,41.5-12.8
		c2.9-1.7,5.7-3.4,8.4-5.1C87.7,83.3,77.9,85.9,60.9,85.6L60.9,85.6z"/>
	<path class="st2" d="M22.7,63.6c-5.7-3.6-13.4-3-18.4,2c-5.8,5.8-5.8,15.1,0,20.9l38,38c5.8,5.8,15.1,5.8,20.9,0
		c15.2-15.2,30.3-30.3,45.5-45.5c-21,12.1-45.4,25.2-62.9,7.7L22.7,63.6L22.7,63.6z"/>
</g>
</svg>
