<?xml version="1.0" encoding="utf-8"?>
<!-- Generator: Adobe Illustrator 22.0.1, SVG Export Plug-In . SVG Version: 6.00 Build 0)  -->
<svg version="1.1" id="Layer_1" xmlns="http://www.w3.org/2000/svg" xmlns:xlink="http://www.w3.org/1999/xlink" x="0px" y="0px"
	 viewBox="0 0 48 48" style="enable-background:new 0 0 48 48;" xml:space="preserve">
<style type="text/css">
	.st0{fill:#FFFFFF;}
</style>
<g id="alert_2_">
	<path class="st0" d="M45.7,39l-20-34.7c-0.9-1.6-2.5-1.6-3.4,0L2.3,39c-0.9,1.6-0.2,2.9,1.7,2.9h40C45.9,41.9,46.6,40.6,45.7,39z
		 M27.4,37.7c0,0.5-0.4,0.8-0.8,0.8h-5.1c-0.5,0-0.8-0.4-0.8-0.8v-5.1c0-0.5,0.4-0.8,0.8-0.8h5.1c0.5,0,0.8,0.4,0.8,0.8V37.7z
		 M27.4,22.5c0,0.5-0.1,1.2-0.2,1.7l-1.5,4.7c-0.1,0.5-0.5,1.3-1,1.3h-1.3c-0.5,0-0.9-0.8-1-1.3l-1.6-4.5c-0.1-0.5-0.2-1.4-0.2-1.9
		v-6.8c0-0.5,0.4-0.8,0.8-0.8h5.1c0.5,0,0.8,0.4,0.8,0.8L27.4,22.5L27.4,22.5z"/>
</g>
</svg>
