<?xml version="1.0" encoding="utf-8"?>
<!-- Generator: Adobe Illustrator 22.0.1, SVG Export Plug-In . SVG Version: 6.00 Build 0)  -->
<svg version="1.1" id="Layer_1" xmlns="http://www.w3.org/2000/svg" xmlns:xlink="http://www.w3.org/1999/xlink" x="0px" y="0px"
	 viewBox="0 0 48 48" style="enable-background:new 0 0 48 48;" xml:space="preserve">
<style type="text/css">
	.st0{fill:#FFFFFF;}
</style>
<g id="globe_2_">
	<path class="st0" d="M24.5,7.6c-0.6,0.3-1,1-1.4,1.4c-0.4,0.1-0.9-0.1-1.2-0.4c0,0.9-1.1,1.4-1.3,2.3c1.5,1,3.7,1,5.4,1.3
		C25.9,10.6,24.5,9.2,24.5,7.6z"/>
	<path class="st0" d="M24,0C10.7,0,0,10.7,0,24s10.7,24,24,24s24-10.7,24-24S37.3,0,24,0z M37.1,40.2c-2.1,2.3-6,4.6-9.2,4.5
		c-0.6-0.8,0-1.1,0.1-1.9c-1.7-0.4-2.7-1.9-3.6-3.3c-0.3-1.7,2.1-3.2,1.5-4.7c-1.1,0.2-2.3-0.1-3.2-0.9c-0.5-0.4-0.8-0.8-1.1-1.3
		c-0.7-0.3-1.4-0.6-2.1-0.9c-2.2-0.9-4.6-1.7-6.3-3.5c0.1-1.7-0.8-2.6-1.9-3.7c-1.1-1.1-0.6-2-1.1-3.5c-0.3-1-0.9-1.8-0.8-2.9
		c0.1-1.1,0.3-2.1,0.7-3.1c0.7-1.9,1.8-3.7,2-5.7c0.1-0.9-1.3-1.1-0.2-2.1C12.9,6.2,14.3,5,16,5c0.8,0,1.3,0.4,2.1,0.2
		c0.8-0.2,1.6-0.3,2.4-0.5c1.7-0.3,3.3-0.6,4.6-1.6l0.1,0.1h1.3l0.1-0.1c1.8,1.5,6.3,0.9,5.7,4.4l-0.1,0.3c-1.6,0.1-3-0.1-4.5-0.6
		c0,0.6,0.1,1.3-0.1,1.8c2.4,1.4,5.5,2.4,6.7,5.1c-1,1.3-2.3,0.7-3.7,0.7c-0.4,0.5-0.6,0.9-0.4,1.5c-1.1,0.6-2.2,1.2-2.5,2.4
		c-0.2,0.7,0,1.6-0.3,2.2c-0.3,0.8-1.3,1.4-1.6,2.2c-0.1,1.1,0.5,2.1-0.5,3c-1.7,0-1.8-1.3-3.1-1.8c-1.1-0.4-2.4-0.1-3.6-0.3
		c-1.6,0.6-1.4,4.7,0.8,3.9c1-0.4,1.1-1.1,2.4-0.9c1.1,0.5,0.4,1.8,0.3,2.6c0.7,0.4,1.7,0.1,2.1,1c0.1,0.6-0.2,1.7,0.1,2.1
		c0.8,1.2,3.2-0.8,3.8-1c1.8-0.6,3.9-0.4,5.8-0.5c1.4,1.1,3.7,0.6,5,2c0.8-0.1,1.5-0.6,2.3,0.1C41.1,36.3,39,38.4,37.1,40.2z"/>
</g>
</svg>
