<?xml version="1.0" encoding="utf-8"?>
<!-- Generator: Adobe Illustrator 22.0.1, SVG Export Plug-In . SVG Version: 6.00 Build 0)  -->
<svg version="1.1" id="Layer_1" xmlns="http://www.w3.org/2000/svg" xmlns:xlink="http://www.w3.org/1999/xlink" x="0px" y="0px"
	 viewBox="0 0 48 48" style="enable-background:new 0 0 48 48;" xml:space="preserve">
<style type="text/css">
	.st0{fill:#FFFFFF;}
</style>
<g id="notes-2_1_">
	<g id="notes-2_5_">
		<g>
			<path class="st0" d="M13.1,9.8V6.4c0-0.9,0.8-1.8,1.8-1.8h3.4V3c0-1,0.8-1.9,1.7-1.9h6.9c1,0,1.7,0.9,1.7,1.9v1.6h3.4
				c1,0,1.8,0.8,1.8,1.8v3.4c0,1-0.8,1.7-1.8,1.7H14.9C13.9,11.5,13.1,10.7,13.1,9.8z M40.8,7.2V47c0,0.5-0.4,0.9-0.9,0.9H7
				c-0.5,0-0.9-0.4-0.9-0.9V7.2c0-0.5,0.4-0.9,0.9-0.9h4.3v5.2c0,1,0.8,1.7,1.7,1.7h20.8c1,0,1.7-0.8,1.7-1.7V6.3h4.3
				C40.4,6.3,40.8,6.7,40.8,7.2z M34.7,29.7c0-0.5-0.4-0.9-0.9-0.9H13.1c-0.5,0-0.9,0.4-0.9,0.9v1.7c0,0.5,0.4,0.9,0.9,0.9h20.8
				c0.5,0,0.9-0.4,0.9-0.9V29.7z M34.7,36.6c0-0.5-0.4-0.9-0.9-0.9H13.1c-0.5,0-0.9,0.4-0.9,0.9v1.7c0,0.5,0.4,0.9,0.9,0.9h20.8
				c0.5,0,0.9-0.4,0.9-0.9V36.6z M34.7,22.7c0-0.5-0.4-0.9-0.9-0.9H13.1c-0.5,0-0.9,0.4-0.9,0.9v1.7c0,0.5,0.4,0.9,0.9,0.9h20.8
				c0.5,0,0.9-0.4,0.9-0.9V22.7z"/>
		</g>
	</g>
</g>
</svg>
