<?xml version="1.0" encoding="utf-8"?>
<!-- Generator: Adobe Illustrator 22.0.1, SVG Export Plug-In . SVG Version: 6.00 Build 0)  -->
<svg version="1.1" id="Layer_1" xmlns="http://www.w3.org/2000/svg" xmlns:xlink="http://www.w3.org/1999/xlink" x="0px" y="0px"
	 viewBox="0 0 117.6 201.7" style="enable-background:new 0 0 117.6 201.7;" xml:space="preserve">
<style type="text/css">
	.st0{clip-path:url(#SVGID_2_);fill:#FFFFFF;}
</style>
<g>
	<g>
		<defs>
			<rect id="SVGID_1_" x="1.2" y="0.5" width="115.6" height="200.4"/>
		</defs>
		<clipPath id="SVGID_2_">
			<use xlink:href="#SVGID_1_"  style="overflow:visible;"/>
		</clipPath>
		<path class="st0" d="M113,171.2L73.5,68.7V17.1h5c1.4,0,2.5-0.8,3.5-2.5c1-1.6,1.5-3.6,1.5-5.8c0-2.2-0.5-4.2-1.5-5.8
			c-1-1.6-2.2-2.5-3.5-2.5H38.3c-1.4,0-2.5,0.8-3.5,2.5c-1,1.6-1.5,3.6-1.5,5.8c0,2.2,0.5,4.2,1.5,5.8c1,1.6,2.2,2.5,3.5,2.5h5v51.6
			L3.9,171.2c-2.9,7.7-3.5,14.3-1.7,19.7c1.8,5.5,5.5,8.2,11,8.2h90.4c5.5,0,9.2-2.7,11-8.2C116.5,185.5,115.9,178.9,113,171.2
			L113,171.2z M30.5,133l21.4-55.5l1.6-4V17.1h10v56.4l1.6,4L86.4,133H30.5z M30.5,133"/>
	</g>
</g>
</svg>
