<?xml version="1.0" encoding="utf-8"?>
<!-- Generator: Adobe Illustrator 22.0.1, SVG Export Plug-In . SVG Version: 6.00 Build 0)  -->
<svg version="1.1" id="Layer_1" xmlns="http://www.w3.org/2000/svg" xmlns:xlink="http://www.w3.org/1999/xlink" x="0px" y="0px"
	 viewBox="0 0 92.1 201.7" style="enable-background:new 0 0 92.1 201.7;" xml:space="preserve">
<style type="text/css">
	.st0{fill:#FFFFFF;}
</style>
<path class="st0" d="M89.2,75.6H57.6V4.2c0-1.9-0.8-3.5-2.1-4c-1.2-0.5-2.5,0.2-3.2,1.8L0.5,119.6c-0.6,1.3-0.6,2.9-0.1,4.3
	c0.5,1.3,1.5,2.2,2.5,2.2h31.7v71.4c0,1.9,0.8,3.5,2.1,4c0.3,0.1,0.5,0.2,0.8,0.2c1,0,1.9-0.7,2.4-1.9L91.7,82.1
	c0.6-1.3,0.6-2.9,0.1-4.3C91.3,76.5,90.3,75.6,89.2,75.6z"/>
</svg>
