<?xml version="1.0" encoding="utf-8"?>
<!-- Generator: Adobe Illustrator 22.0.1, SVG Export Plug-In . SVG Version: 6.00 Build 0)  -->
<svg version="1.1" id="Layer_1" xmlns="http://www.w3.org/2000/svg" xmlns:xlink="http://www.w3.org/1999/xlink" x="0px" y="0px"
	 viewBox="0 0 48 48" style="enable-background:new 0 0 48 48;" xml:space="preserve">
<style type="text/css">
	.st0{fill:#FFFFFF;}
</style>
<g id="link_1_">
	<path class="st0" d="M42.8,19.8l-4.5,4.5c-0.6-2-1.7-4-3.3-5.7l3.3-3.3c1.2-1.2,0.6-3.2-0.6-4.4l-3.5-3.5c-1.1-1.1-2.9-1.7-4.2-0.3
		L19,18.1c-1.3,1.3-0.8,3,0.3,4.2v0c0,0,0,0,0,0.1l5.9,5.9l-4.5,4.5l-5.9-5.9l0,0c0,0,0,0,0,0c0,0,0,0,0,0l0,0
		c-3.8-3.8-3.9-9.5-0.3-13.1L25.6,2.6C29.2-1,35-0.8,38.8,2.9l3.5,3.5C46.1,10.3,46.4,16.2,42.8,19.8z M26.8,14.9
		C26.8,14.9,26.8,14.9,26.8,14.9l-4.5,4.4c0,0,0,0,0,0l5.7,5.7c1.2,1.2,1.7,3.2,0.6,4.4L17.6,40.5c-1.2,1.2-3.2,0.6-4.4-0.5
		l-3.5-3.5c-1.1-1.1-1.6-2.9-0.3-4.2l3.3-3.3c-1.6-1.6-2.7-3.6-3.3-5.6l-4.4,4.4C1.3,31.4,1.4,37.2,5.2,41l3.5,3.5
		c3.8,3.8,9.8,4.1,13.4,0.5l11.1-11.1c3.6-3.6,3.3-9.5-0.6-13.4L26.8,14.9z"/>
</g>
</svg>
