<?xml version="1.0" encoding="utf-8"?>
<!-- Generator: Adobe Illustrator 22.0.1, SVG Export Plug-In . SVG Version: 6.00 Build 0)  -->
<svg version="1.1" id="Layer_1" xmlns="http://www.w3.org/2000/svg" xmlns:xlink="http://www.w3.org/1999/xlink" x="0px" y="0px"
	 viewBox="0 0 48 48" style="enable-background:new 0 0 48 48;" xml:space="preserve">
<style type="text/css">
	.st0{fill:#FFFFFF;}
</style>
<g id="star_2_">
	<path class="st0" d="M46.2,18.1H30.2c-0.3,0-0.5-0.2-0.6-0.4l-5-15.3c-0.2-0.5-0.9-0.5-1.1,0l-5,15.3c-0.1,0.2-0.3,0.4-0.6,0.4H1.8
		c-0.6,0-0.8,0.7-0.3,1.1l13.1,9.2c0.2,0.1,0.3,0.4,0.2,0.7L9.8,44c-0.2,0.5,0.4,1,0.9,0.7l12.9-9.4c0.2-0.1,0.5-0.2,0.7,0l13,9.3
		c0.5,0.3,1.1-0.1,0.9-0.7l-4.9-15c-0.1-0.2,0-0.5,0.2-0.7l12.9-9.1C47,18.8,46.7,18.1,46.2,18.1z"/>
</g>
</svg>
