<?xml version="1.0" encoding="utf-8"?>
<!-- Generator: Adobe Illustrator 22.0.1, SVG Export Plug-In . SVG Version: 6.00 Build 0)  -->
<svg version="1.1" id="Layer_1" xmlns="http://www.w3.org/2000/svg" xmlns:xlink="http://www.w3.org/1999/xlink" x="0px" y="0px"
	 viewBox="0 0 48 48" style="enable-background:new 0 0 48 48;" xml:space="preserve">
<style type="text/css">
	.st0{fill:#FFFFFF;}
</style>
<g id="fingerprint-lock_2_">
	<path class="st0" d="M11.8,20.3c-1.2,2.1-1.8,4.5-1.8,6.9v3.1c0,2.6-0.3,5-0.9,7.5C9.1,37.9,9,38,8.8,38c-0.1,0-0.2,0-0.3-0.1
		l-1.4-1.1c-0.3-0.2-0.5-0.7-0.4-1.1C7,34,7.2,32.1,7.2,30.3c0,0,0-3.5,0-3.5c0.1-2.9,0.9-5.7,2.4-8.1c0.1-0.2,0.3-0.3,0.4-0.3
		c0.1,0,0.2,0,0.3,0.1l1.2,1C11.9,19.6,12,20,11.8,20.3z M24,7c1.7,0,3.4,0.2,5,0.6c0.1,0,0.1,0,0.2,0c0.3,0,0.6-0.2,0.7-0.4
		l0.3-0.6c0.1-0.3,0.2-0.6,0.3-0.8c0.1-0.2,0-0.3,0-0.4c-0.1-0.1-0.2-0.2-0.3-0.3c-2-0.5-4-0.8-6.1-0.8C11.3,4.2,1.1,14.5,1.1,27.2
		c0,1.3,0.1,2.6,0.4,3.9c0,0.3,0.3,0.4,0.5,0.4c0.1,0,0.1,0,0.2,0l1.5-0.4c0.3-0.1,0.5-0.5,0.5-0.8c-0.2-1.1-0.3-2.1-0.3-3.1
		C3.8,16.1,12.9,7,24,7z M12.5,15c-0.1,0.1-0.2,0.2-0.2,0.4c0,0.2,0.1,0.3,0.2,0.4l1.2,1c0.1,0.1,0.3,0.1,0.4,0.1
		c0.2,0,0.4-0.1,0.5-0.2c2.6-2.3,5.9-3.5,9.3-3.5c2.1,0,4.1,0.5,6,1.4v-3c-1.9-0.7-4-1.1-6-1.1C19.7,10.4,15.6,12,12.5,15z
		 M22.1,32.1C22,32,21.8,32,21.6,32h-1.5c-0.3,0-0.6,0.3-0.7,0.6c-0.3,4.4-1.5,8.2-3.5,11.6c-0.1,0.1-0.1,0.3-0.1,0.4
		c0,0.1,0.1,0.3,0.3,0.3l1.4,0.7c0.1,0,0.2,0.1,0.3,0.1l0,0c0.2,0,0.5-0.1,0.6-0.3c2.2-3.7,3.5-8,3.8-12.8
		C22.2,32.4,22.2,32.2,22.1,32.1z M25.4,43.1l-1.7-0.4c-0.3,0-0.6,0.2-0.7,0.5c-0.3,0.7-0.6,1.3-1,1.9c-0.1,0.1-0.1,0.3-0.1,0.5
		c0,0.1,0.1,0.3,0.3,0.3l1.4,0.7c0.1,0,0.2,0.1,0.3,0.1c0.2,0,0.5-0.1,0.6-0.3c0.4-0.8,0.9-1.7,1.3-2.6c0.1-0.1,0.1-0.3,0-0.4
		C25.7,43.2,25.6,43.1,25.4,43.1z M35.8,19.6c1.5,2.3,2.2,4.9,2.2,7.6v3.1c0,2.7-0.3,5.4-0.9,7.8c-0.1,0.3,0.1,0.7,0.4,0.8l1.4,0.4
		c0,0,0.1,0,0.1,0c0.3,0,0.7-0.3,0.7-0.6c0.7-2.7,1-5.5,1-8.5v-3.1c0-2.6-0.6-5.2-1.8-7.6C39,19.6,35.8,19.6,35.8,19.6z M45.6,19.6
		c-0.1,0-0.3,0-0.4,0h-2.6c1,2.4,1.5,5,1.5,7.5c0,1-0.1,2.1-0.3,3.2c-0.1,0.3,0.2,0.7,0.5,0.8l1.5,0.4c0.1,0,0.1,0,0.2,0
		c0.3,0,0.5-0.2,0.5-0.4c0.2-1.3,0.4-2.7,0.4-4C46.9,24.6,46.5,22,45.6,19.6z M24,22.7c-2.4,0-4.5,2-4.5,4.5v0.8
		c0,0.3,0.3,0.6,0.6,0.6h1.5c0.3,0,0.6-0.3,0.6-0.6v-0.8c0-0.9,0.8-1.7,1.7-1.7s1.7,0.8,1.7,1.7v3.1c0,3-0.4,5.9-1.1,8.6
		c0,0.2,0,0.3,0.1,0.5c0.1,0.1,0.2,0.2,0.4,0.3l1.5,0.3c0,0,0.1,0,0.1,0c0.3,0,0.6-0.2,0.6-0.5c0.8-2.9,1.1-5.9,1.1-9.1
		c0,0,0.2-3.2-0.3-4.5C27.6,23.9,25.9,22.7,24,22.7z M24,16.6c-5.7,0-10.4,4.5-10.6,10.1c0,0.1,0,0.5,0,0.5v3.1
		c0,4-0.7,7.7-2.1,10.9c-0.1,0.3,0,0.8,0.3,1l1.3,1c0.1,0.1,0.2,0.1,0.3,0.1c0.2,0,0.3-0.1,0.4-0.3c1.8-3.8,2.6-8.1,2.6-12.7v-3.1
		c0-4.3,3.5-7.9,7.9-7.9s7.9,3.5,7.9,7.9v3.1c0,4.9-1,9.4-2.9,13.4c-0.2,0.3,0,0.7,0.3,0.8l1.4,0.7c0.1,0,0.2,0.1,0.3,0.1
		c0.2,0,0.4-0.1,0.5-0.3c2.1-4.3,3.2-9.3,3.2-14.7v-3.1C34.6,21.3,29.9,16.6,24,16.6z M33.2,16.2V7.4c0-0.1,0.1-0.3,0.3-0.3h1.3V3.2
		c0-1.1,1-2.2,2.2-2.2h4.8C42.9,1,44,2.1,44,3.2v3.9h1.2c0.1,0,0.3,0.2,0.3,0.3v8.7c0,0.1-0.2,0.2-0.3,0.2H33.5
		C33.4,16.4,33.2,16.3,33.2,16.2z M36.3,7.2h6.2V3.2c0-0.5-0.2-0.7-0.7-0.7H37c-0.5,0-0.7,0.2-0.7,0.7V7.2z"/>
</g>
</svg>
