<?xml version="1.0" encoding="utf-8"?>
<!-- Generator: Adobe Illustrator 22.0.1, SVG Export Plug-In . SVG Version: 6.00 Build 0)  -->
<svg version="1.1" id="Layer_1" xmlns="http://www.w3.org/2000/svg" xmlns:xlink="http://www.w3.org/1999/xlink" x="0px" y="0px"
	 viewBox="0 0 400 400" style="enable-background:new 0 0 400 400;" xml:space="preserve">
<style type="text/css">
	.st0{fill:#FFFFFF;}
</style>
<path class="st0" d="M130.3,352.4c142.1,0,219.8-117.7,219.8-219.8c0-3.3,0-6.7-0.2-10c15.1-10.9,28.2-24.5,38.5-40
	c-14.1,6.2-29,10.3-44.4,12.2c16.1-9.7,28.2-24.8,34-42.7c-15.2,9-31.7,15.3-49,18.7c-29.2-31.1-78.2-32.6-109.3-3.4
	c-20.1,18.9-28.6,47-22.3,73.8c-62.1-3.1-120-32.4-159.2-80.7c-20.5,35.3-10,80.4,23.9,103.1c-12.3-0.4-24.3-3.7-35.1-9.7
	c0,0.3,0,0.6,0,1c0,36.8,25.9,68.4,62,75.7c-11.4,3.1-23.3,3.6-34.9,1.3c10.1,31.5,39.1,53,72.2,53.6
	c-27.3,21.5-61.1,33.2-95.9,33.1c-6.1,0-12.3-0.4-18.4-1.1C47.3,340.4,88.4,352.4,130.3,352.4"/>
</svg>
